<svg xmlns="http://www.w3.org/2000/svg" version="1.1" xmlns:xlink="http://www.w3.org/1999/xlink" xmlns:svgjs="http://svgjs.dev/svgjs" width="1440" height="560" preserveAspectRatio="none" viewBox="0 0 1440 560">
    <g mask="url(&quot;#SvgjsMask1007&quot;)" fill="none">
        <rect width="1440" height="560" x="0" y="0" fill="rgba(18, 23, 35, 1)"></rect>
        <path d="M209.06 567.09C416.53 535.32 527.34 40.17 861.29 38.47 1195.25 36.77 1339.76 275.47 1513.53 279.27" stroke="rgba(173, 207, 40, 1)" stroke-width="2"></path>
        <path d="M440.36 640.4C593.85 575.38 600.91 115.3 826.72 96.97 1052.53 78.64 1019.9 166.97 1213.08 166.97 1406.26 166.97 1501.28 97.25 1599.44 96.97" stroke="rgba(173, 207, 40, 1)" stroke-width="2"></path>
        <path d="M179.58 652.65C395.93 624.42 518.64 129.97 876.82 127.75 1234.99 125.53 1392.99 321.9 1574.05 323.75" stroke="rgba(173, 207, 40, 1)" stroke-width="2"></path>
        <path d="M881.15 642.15C1021.71 612.93 1088.21 249.02 1299.47 248.72 1510.74 248.42 1593.29 511.24 1717.8 523.12" stroke="rgba(173, 207, 40, 1)" stroke-width="2"></path>
        <path d="M689.64 615.21C843.15 578.49 902.41 168.89 1133.59 166.28 1364.77 163.67 1456.84 352.72 1577.54 356.68" stroke="rgba(173, 207, 40, 1)" stroke-width="2"></path>
    </g>
    <defs>
        <mask id="SvgjsMask1007">
            <rect width="1440" height="560" fill="#ffffff"></rect>
        </mask>
    </defs>
</svg>