<?xml version="1.0" encoding="UTF-8"?><svg id="Layer_2" xmlns="http://www.w3.org/2000/svg" viewBox="0 0 86.4 76.31"><defs><style>.cls-1{fill:red;}.cls-2{fill:#2746f8;}</style></defs><g id="Layer_1-2"><g><path class="cls-2" d="M22.08,9.75V3.5s-.09-2.05-2.09-2.49c0,0-.92-.32-3.32,.57-2.39,.9-4.96-1.58-4.96-1.58V7.14s1.12,1.01,2.49,1.23c0,0,1.43,.34,2.86-.28,1.44-.63,2.19-.68,2.19-.68,1.35-.09,2.24,1.01,2.62,2.34h.21Z"/><path class="cls-2" d="M14.51,44.28v16.17c.92-.24,1.88-.46,2.86-.64v-18.72c-2.41,.56-4.54,1.38-4.54,1.38,1.66,0,1.68,1.81,1.68,1.81"/><path class="cls-2" d="M20.84,42.44v16.86c1.14-.12,2.3-.21,3.49-.25v-18.98c-1.33,.06-2.63,.18-3.9,.36-.86,.15-1.25,.26-1.25,.26,1.63,0,1.67,1.76,1.67,1.76"/><path class="cls-2" d="M8.57,47.34v15.26c.79-.38,1.61-.73,2.48-1.05v-18.35c-2.48,1.08-4.21,2.32-4.21,2.32,1.67,0,1.73,1.83,1.73,1.83"/><path class="cls-2" d="M3.43,52.83v13.09c.56-.5,1.18-.98,1.85-1.44v-17.77c-2.4,1.91-3.72,4.3-3.72,4.3,1.73,0,1.86,1.82,1.86,1.82"/><path class="cls-2" d="M24.34,16.46h0v-4.09c0-.46-1.01-.82-2.25-.82s-2.25,.37-2.25,.82v4.91C10.47,20.01,3.62,28.7,3.62,38.99c0,0,0,0,0,0-2.3,2.56-3.62,5.54-3.62,8.72,0,.61,.05,1.22,.15,1.82,1.32-6.67,11.52-11.94,24.19-12.39V16.46Z"/><path class="cls-1" d="M24.34,61.86c-13.19,.48-23.59,6.07-23.59,12.89,0,.32,.02,.64,.07,.95,.91-5.55,10.97-9.97,23.52-10.33v-3.51Z"/><path class="cls-2" d="M24.34,76.18v-7.97c-10.61,.47-19.14,3.75-21.01,7.97H24.34Z"/><path class="cls-2" d="M33.96,17.66l-1.04-3.08-1.03,3.08h2.07Zm.53,1.58h-3.14l-.5,1.48h-2.14l3.04-8.4h2.37l3.04,8.4h-2.17l-.5-1.48Z"/><path class="cls-2" d="M48.17,14.73c.49,.5,.74,1.2,.74,2.09v3.9h-2.04v-3.63c0-.43-.11-.76-.34-1-.23-.24-.54-.35-.94-.35s-.71,.12-.94,.35c-.23,.24-.34,.57-.34,1v3.63h-2.03v-3.63c0-.43-.11-.76-.34-1-.23-.24-.54-.35-.94-.35s-.71,.12-.94,.35c-.23,.24-.34,.57-.34,1v3.63h-2.05v-6.68h2.05v.84c.21-.28,.48-.5,.81-.66,.34-.16,.71-.25,1.14-.25,.5,0,.95,.11,1.35,.32,.39,.22,.7,.52,.93,.92,.23-.37,.55-.67,.95-.9,.4-.23,.83-.35,1.3-.35,.83,0,1.49,.25,1.98,.75"/><path class="cls-2" d="M54.22,16.74c0-.35-.12-.63-.36-.84-.24-.21-.54-.31-.9-.31s-.63,.1-.87,.3c-.24,.2-.38,.48-.44,.85h2.56Zm2.06,1.14h-4.63c.03,.42,.17,.73,.4,.95,.24,.22,.52,.33,.87,.33,.51,0,.87-.22,1.07-.65h2.18c-.11,.44-.31,.83-.6,1.19-.29,.35-.66,.63-1.1,.83-.44,.2-.93,.3-1.47,.3-.65,0-1.24-.14-1.75-.42-.51-.28-.91-.68-1.2-1.2-.29-.52-.43-1.13-.43-1.82s.14-1.3,.42-1.82c.28-.52,.68-.92,1.19-1.2,.51-.28,1.1-.42,1.76-.42s1.22,.14,1.72,.41c.5,.27,.9,.66,1.18,1.16,.28,.5,.42,1.09,.42,1.76,0,.19-.01,.39-.04,.6"/><path class="cls-2" d="M60.03,14.29c.36-.21,.76-.32,1.2-.32v2.17h-.56c-.51,0-.89,.11-1.15,.33-.26,.22-.38,.6-.38,1.16v3.1h-2.05v-6.68h2.05v1.11c.24-.37,.54-.66,.9-.87"/><path class="cls-2" d="M63.9,20.73h-2.05v-6.68h2.05v6.68Zm-1.9-7.69c-.23-.21-.34-.47-.34-.78s.11-.58,.34-.8c.23-.21,.52-.32,.88-.32s.64,.11,.87,.32c.23,.21,.34,.48,.34,.8s-.11,.57-.34,.78c-.23,.21-.52,.32-.87,.32s-.65-.11-.88-.32"/><path class="cls-2" d="M65.07,15.57c.28-.52,.68-.92,1.19-1.2s1.09-.42,1.74-.42c.84,0,1.54,.22,2.1,.66,.56,.44,.93,1.06,1.11,1.86h-2.18c-.18-.51-.54-.77-1.07-.77-.38,0-.67,.15-.9,.44-.22,.29-.33,.71-.33,1.25s.11,.96,.33,1.25c.22,.29,.52,.44,.9,.44,.53,0,.88-.26,1.07-.77h2.18c-.18,.78-.55,1.4-1.11,1.84-.57,.45-1.26,.67-2.09,.67-.65,0-1.23-.14-1.74-.42-.51-.28-.9-.68-1.19-1.2-.28-.52-.43-1.13-.43-1.82s.14-1.3,.43-1.82"/><path class="cls-2" d="M76.14,16.18c-.28-.3-.63-.44-1.04-.44s-.75,.15-1.04,.44c-.28,.29-.43,.69-.43,1.2s.14,.92,.43,1.21c.28,.3,.63,.45,1.04,.45s.75-.15,1.04-.44c.28-.3,.43-.7,.43-1.21s-.14-.91-.43-1.21m-4.19-.61c.26-.52,.61-.92,1.06-1.2,.45-.28,.95-.42,1.5-.42,.47,0,.88,.1,1.24,.29,.36,.19,.63,.44,.82,.75v-.95h2.05v6.68h-2.05v-.95c-.2,.31-.48,.56-.83,.75-.36,.19-.77,.29-1.24,.29-.54,0-1.04-.14-1.48-.42-.45-.28-.8-.69-1.06-1.21-.26-.52-.39-1.13-.39-1.81s.13-1.29,.39-1.81"/><path class="cls-2" d="M85.7,14.73c.47,.51,.7,1.2,.7,2.09v3.9h-2.03v-3.63c0-.45-.12-.79-.35-1.04-.23-.25-.54-.37-.93-.37s-.7,.12-.93,.37c-.23,.25-.35,.59-.35,1.04v3.63h-2.05v-6.68h2.05v.89c.21-.3,.49-.53,.84-.7,.35-.17,.75-.26,1.19-.26,.78,0,1.41,.25,1.87,.76"/><path class="cls-2" d="M29.21,25c.36-.65,.86-1.16,1.5-1.52,.64-.36,1.37-.54,2.18-.54,1,0,1.85,.26,2.56,.79,.71,.53,1.19,1.25,1.42,2.15h-2.25c-.17-.35-.4-.62-.71-.8-.31-.18-.66-.28-1.05-.28-.63,0-1.14,.22-1.53,.66-.39,.44-.59,1.03-.59,1.76s.2,1.32,.59,1.76c.39,.44,.9,.66,1.53,.66,.39,0,.74-.09,1.05-.28,.31-.18,.54-.45,.71-.8h2.25c-.24,.91-.71,1.63-1.42,2.15-.71,.52-1.56,.78-2.56,.78-.81,0-1.54-.18-2.18-.54-.64-.36-1.14-.87-1.5-1.51-.36-.65-.54-1.38-.54-2.21s.18-1.57,.54-2.22"/><path class="cls-2" d="M41.93,26.88c-.28-.3-.63-.44-1.04-.44s-.75,.15-1.04,.44c-.28,.29-.42,.69-.42,1.2s.14,.92,.42,1.21c.28,.3,.63,.45,1.04,.45s.75-.15,1.04-.44c.28-.3,.43-.7,.43-1.21s-.14-.91-.43-1.21m-4.19-.61c.26-.52,.61-.92,1.06-1.2,.45-.28,.95-.42,1.5-.42,.47,0,.88,.1,1.24,.29,.36,.19,.63,.44,.82,.75v-.95h2.05v6.68h-2.05v-.95c-.2,.31-.48,.56-.83,.75-.36,.19-.77,.29-1.24,.29-.54,0-1.04-.14-1.48-.42-.45-.28-.8-.69-1.06-1.21-.26-.52-.39-1.13-.39-1.81s.13-1.29,.39-1.81"/><path class="cls-2" d="M51.5,25.44c.47,.51,.7,1.2,.7,2.09v3.9h-2.03v-3.63c0-.45-.12-.79-.35-1.04-.23-.25-.54-.37-.93-.37s-.7,.12-.93,.37c-.23,.25-.35,.59-.35,1.04v3.63h-2.05v-6.68h2.05v.89c.21-.3,.49-.53,.84-.7,.35-.17,.75-.26,1.19-.26,.78,0,1.41,.25,1.87,.76"/><path class="cls-2" d="M53.32,26.27c.28-.52,.68-.92,1.19-1.2s1.09-.42,1.74-.42c.84,0,1.54,.22,2.1,.66,.56,.44,.93,1.06,1.11,1.86h-2.18c-.18-.51-.54-.77-1.07-.77-.38,0-.67,.15-.9,.44-.22,.29-.33,.71-.33,1.25s.11,.96,.33,1.25c.22,.29,.52,.44,.9,.44,.53,0,.88-.26,1.07-.77h2.18c-.18,.78-.55,1.4-1.11,1.84-.57,.45-1.26,.67-2.09,.67-.65,0-1.23-.14-1.74-.42-.51-.28-.9-.68-1.19-1.2-.28-.52-.42-1.13-.42-1.82s.14-1.3,.42-1.82"/><path class="cls-2" d="M64.41,27.44c0-.35-.12-.63-.36-.84-.24-.21-.54-.31-.9-.31s-.63,.1-.87,.3c-.24,.2-.38,.48-.44,.85h2.56Zm2.06,1.14h-4.63c.03,.42,.17,.73,.4,.95,.24,.22,.52,.33,.87,.33,.51,0,.87-.22,1.07-.65h2.18c-.11,.44-.31,.83-.6,1.19-.29,.35-.66,.63-1.1,.83-.44,.2-.93,.3-1.47,.3-.65,0-1.24-.14-1.75-.42-.51-.28-.91-.68-1.2-1.2-.29-.52-.43-1.13-.43-1.82s.14-1.3,.43-1.82c.28-.52,.68-.92,1.19-1.2,.51-.28,1.1-.42,1.76-.42s1.22,.14,1.72,.41c.5,.27,.9,.66,1.18,1.16,.28,.5,.42,1.09,.42,1.76,0,.19-.01,.39-.04,.6"/><path class="cls-2" d="M70.22,25c.36-.21,.76-.32,1.2-.32v2.17h-.56c-.51,0-.89,.11-1.15,.33-.26,.22-.38,.6-.38,1.16v3.1h-2.05v-6.68h2.05v1.11c.24-.37,.54-.66,.9-.87"/><path class="cls-2" d="M30.88,42.38c-.49-.2-.88-.49-1.17-.89-.29-.39-.44-.86-.46-1.41h2.18c.03,.31,.14,.55,.32,.71,.18,.16,.42,.25,.72,.25s.54-.07,.72-.21c.18-.14,.26-.33,.26-.58,0-.21-.07-.38-.21-.51-.14-.14-.31-.25-.51-.33-.2-.09-.49-.19-.87-.3-.54-.17-.99-.33-1.33-.5-.34-.17-.64-.42-.89-.74-.25-.33-.37-.75-.37-1.28,0-.78,.28-1.39,.85-1.84,.57-.44,1.3-.66,2.21-.66s1.67,.22,2.24,.66c.57,.44,.87,1.06,.91,1.85h-2.21c-.02-.27-.12-.48-.3-.64-.18-.16-.42-.23-.71-.23-.25,0-.45,.07-.6,.2-.15,.13-.23,.32-.23,.57,0,.27,.13,.48,.38,.63,.26,.15,.65,.32,1.2,.49,.54,.18,.98,.36,1.32,.53,.34,.17,.63,.41,.88,.73,.25,.32,.37,.73,.37,1.23s-.12,.91-.37,1.31c-.24,.39-.6,.7-1.06,.93-.46,.23-1.01,.35-1.64,.35s-1.17-.1-1.65-.3"/><path class="cls-2" d="M40.56,40.49c.28-.29,.41-.7,.41-1.23s-.13-.95-.4-1.23c-.27-.29-.6-.43-.99-.43s-.73,.14-.99,.43c-.26,.28-.39,.7-.39,1.24s.13,.95,.39,1.23c.26,.29,.58,.43,.98,.43s.72-.14,1-.43m-2.77,1.78c-.52-.28-.93-.68-1.23-1.2-.3-.52-.45-1.13-.45-1.82s.15-1.29,.45-1.81c.3-.52,.72-.92,1.25-1.2,.53-.28,1.12-.42,1.77-.42s1.25,.14,1.77,.42c.53,.28,.94,.68,1.24,1.2,.3,.52,.45,1.13,.45,1.81s-.15,1.29-.46,1.81c-.31,.52-.73,.92-1.26,1.2-.53,.28-1.12,.42-1.78,.42s-1.24-.14-1.77-.42"/><path class="cls-2" d="M43.85,37.43c.28-.52,.68-.92,1.19-1.2s1.09-.42,1.74-.42c.84,0,1.54,.22,2.1,.66,.56,.44,.93,1.06,1.11,1.86h-2.18c-.18-.51-.54-.77-1.07-.77-.38,0-.67,.15-.9,.44-.22,.29-.33,.71-.33,1.25s.11,.96,.33,1.25c.22,.29,.52,.44,.9,.44,.53,0,.88-.26,1.07-.77h2.18c-.18,.78-.55,1.4-1.11,1.84-.57,.45-1.26,.67-2.09,.67-.65,0-1.23-.14-1.74-.42-.51-.28-.9-.68-1.19-1.2-.28-.52-.43-1.13-.43-1.82s.14-1.3,.43-1.82"/><path class="cls-2" d="M52.76,42.59h-2.05v-6.68h2.05v6.68Zm-1.9-7.69c-.23-.21-.34-.47-.34-.78s.11-.58,.34-.8c.23-.21,.52-.32,.88-.32s.64,.11,.87,.32,.34,.48,.34,.8-.11,.57-.34,.78c-.23,.21-.52,.32-.87,.32s-.65-.11-.88-.32"/><path class="cls-2" d="M58.12,38.61c0-.35-.12-.63-.36-.84-.24-.21-.54-.31-.9-.31s-.63,.1-.87,.3c-.24,.2-.38,.48-.44,.85h2.56Zm2.06,1.14h-4.63c.03,.42,.17,.73,.4,.95,.24,.22,.52,.33,.87,.33,.51,0,.87-.22,1.07-.65h2.18c-.11,.44-.31,.83-.6,1.19-.29,.35-.66,.63-1.1,.83-.44,.2-.93,.3-1.47,.3-.65,0-1.24-.14-1.75-.42-.51-.28-.91-.68-1.2-1.2-.29-.52-.43-1.13-.43-1.82s.14-1.3,.42-1.82c.28-.52,.68-.92,1.19-1.2,.51-.28,1.1-.42,1.76-.42s1.22,.14,1.72,.41c.5,.27,.9,.66,1.18,1.16,.28,.5,.42,1.09,.42,1.76,0,.19-.01,.39-.04,.6"/><path class="cls-2" d="M64.63,40.86v1.74h-1.04c-.74,0-1.32-.18-1.74-.55-.41-.36-.62-.96-.62-1.78v-2.66h-.81v-1.7h.81v-1.63h2.05v1.63h1.34v1.7h-1.34v2.68c0,.2,.05,.34,.14,.43,.1,.09,.26,.13,.48,.13h.73Z"/><polygon class="cls-2" points="72.43 35.91 68.24 45.77 66.04 45.77 67.57 42.37 64.85 35.91 67.14 35.91 68.68 40.09 70.22 35.91 72.43 35.91"/><path class="cls-2" d="M29.3,48.32c.35-.63,.83-1.11,1.44-1.47,.61-.35,1.29-.53,2.03-.53,.87,0,1.64,.21,2.29,.63,.65,.42,1.13,1.02,1.43,1.8h-1.25c-.22-.48-.54-.86-.96-1.12-.42-.26-.92-.39-1.5-.39s-1.06,.13-1.51,.39c-.45,.26-.79,.63-1.05,1.11-.25,.48-.38,1.04-.38,1.69s.13,1.2,.38,1.67,.6,.85,1.05,1.11c.44,.26,.95,.39,1.51,.39s1.08-.13,1.5-.39c.42-.26,.74-.63,.96-1.11h1.25c-.3,.77-.77,1.36-1.43,1.78-.65,.42-1.42,.63-2.29,.63-.74,0-1.42-.17-2.03-.52-.61-.35-1.09-.83-1.44-1.46-.35-.62-.53-1.32-.53-2.11s.18-1.49,.53-2.11"/><path class="cls-2" d="M42.46,50.04c-.19-.35-.45-.62-.78-.81-.33-.19-.68-.28-1.08-.28s-.75,.09-1.07,.28c-.32,.18-.58,.45-.77,.81-.19,.35-.29,.77-.29,1.24s.1,.9,.29,1.26c.19,.36,.45,.63,.77,.82,.32,.19,.68,.28,1.07,.28s.75-.09,1.08-.28c.33-.19,.59-.46,.78-.82,.19-.36,.29-.77,.29-1.25s-.1-.89-.29-1.24m-4.66-.47c.26-.49,.62-.86,1.08-1.13,.46-.27,.96-.4,1.53-.4s1.03,.12,1.44,.36c.41,.24,.71,.54,.91,.9v-1.15h1.06v6.31h-1.06v-1.17c-.21,.37-.52,.67-.93,.91-.41,.24-.89,.36-1.43,.36s-1.07-.14-1.52-.41c-.45-.28-.81-.66-1.07-1.16-.26-.5-.39-1.07-.39-1.7s.13-1.21,.39-1.7"/><path class="cls-2" d="M50.32,48.72c.48,.46,.71,1.13,.71,2.01v3.72h-1.04v-3.57c0-.63-.16-1.11-.47-1.44-.31-.33-.74-.5-1.29-.5s-.99,.17-1.32,.52c-.33,.35-.49,.85-.49,1.51v3.49h-1.05v-6.31h1.05v.9c.21-.32,.49-.57,.85-.75,.36-.18,.75-.26,1.18-.26,.77,0,1.39,.23,1.86,.7"/><path class="cls-2" d="M52.59,49.57c.26-.49,.62-.86,1.09-1.13,.46-.27,1-.4,1.59-.4,.77,0,1.41,.19,1.92,.56,.5,.38,.83,.9,1,1.57h-1.13c-.11-.38-.32-.69-.63-.91-.31-.22-.7-.33-1.16-.33-.6,0-1.08,.21-1.45,.62-.37,.41-.55,.99-.55,1.74s.18,1.35,.55,1.76c.37,.41,.85,.62,1.45,.62,.46,0,.84-.11,1.15-.32,.31-.21,.52-.52,.63-.92h1.13c-.17,.64-.51,1.16-1.01,1.55-.51,.39-1.14,.58-1.9,.58-.6,0-1.13-.13-1.59-.4-.46-.27-.83-.65-1.09-1.14-.26-.49-.39-1.07-.39-1.73s.13-1.22,.39-1.71"/><path class="cls-2" d="M63.78,49.8c-.18-.29-.42-.51-.72-.66-.3-.15-.64-.22-1.01-.22-.53,0-.98,.17-1.35,.51-.37,.34-.59,.81-.64,1.4h3.98c0-.4-.09-.74-.26-1.03m1.31,1.88h-5.04c.04,.62,.25,1.11,.64,1.46,.39,.35,.86,.52,1.41,.52,.45,0,.83-.11,1.13-.32,.3-.21,.52-.49,.64-.85h1.13c-.17,.61-.51,1.1-1.01,1.48-.51,.38-1.14,.57-1.89,.57-.6,0-1.13-.13-1.61-.4-.47-.27-.84-.65-1.11-1.15-.27-.5-.4-1.07-.4-1.72s.13-1.22,.39-1.72c.26-.49,.63-.87,1.1-1.13,.47-.26,1.02-.4,1.63-.4s1.13,.13,1.59,.39c.46,.26,.82,.62,1.06,1.08,.25,.46,.37,.97,.37,1.55,0,.2-.01,.41-.03,.63"/><path class="cls-2" d="M68.18,48.33c.34-.2,.76-.3,1.25-.3v1.08h-.28c-1.17,0-1.76,.64-1.76,1.91v3.43h-1.05v-6.31h1.05v1.02c.18-.36,.45-.64,.79-.84"/><path class="cls-2" d="M33.6,62.69l-1.45-4.05-1.45,4.05h2.9Zm.3,.85h-3.5l-.64,1.78h-1.1l2.9-7.98h1.21l2.89,7.98h-1.1l-.64-1.78Z"/><path class="cls-2" d="M36.47,60.45c.26-.49,.62-.86,1.09-1.13,.46-.27,1-.4,1.59-.4,.77,0,1.41,.19,1.92,.56,.5,.38,.83,.9,1,1.57h-1.13c-.11-.38-.32-.69-.63-.91-.31-.22-.7-.33-1.16-.33-.6,0-1.08,.21-1.45,.62-.37,.41-.55,.99-.55,1.74s.18,1.35,.55,1.76c.37,.41,.85,.62,1.45,.62,.46,0,.84-.11,1.15-.32,.31-.21,.52-.52,.63-.92h1.13c-.17,.64-.51,1.16-1.01,1.55-.51,.39-1.14,.58-1.9,.58-.6,0-1.13-.13-1.59-.4-.46-.27-.83-.65-1.09-1.14-.26-.49-.39-1.07-.39-1.73s.13-1.22,.39-1.71"/><path class="cls-2" d="M44.46,59.88v3.72c0,.31,.06,.52,.2,.65,.13,.13,.36,.19,.68,.19h.77v.89h-.94c-.58,0-1.02-.13-1.31-.4-.29-.27-.44-.71-.44-1.32v-3.72h-.82v-.86h.82v-1.59h1.05v1.59h1.65v.86h-1.65Z"/><path class="cls-2" d="M48.14,65.33h-1.05v-6.31h1.05v6.31Zm-1.01-7.54c-.14-.14-.21-.31-.21-.51s.07-.37,.21-.51c.14-.14,.31-.21,.51-.21s.35,.07,.49,.21c.13,.14,.2,.31,.2,.51s-.07,.37-.2,.51c-.13,.14-.3,.21-.49,.21s-.37-.07-.51-.21"/><path class="cls-2" d="M53.54,64.24c.33-.18,.6-.44,.8-.79,.2-.35,.31-.78,.31-1.29s-.1-.94-.3-1.29c-.2-.35-.46-.62-.78-.79-.32-.17-.67-.26-1.05-.26s-.73,.09-1.05,.26c-.32,.17-.57,.44-.77,.79-.19,.35-.29,.78-.29,1.29s.09,.95,.28,1.3,.44,.62,.75,.79c.31,.17,.66,.26,1.04,.26s.73-.09,1.06-.26m-2.66,.78c-.48-.27-.86-.65-1.13-1.15-.27-.49-.41-1.07-.41-1.72s.14-1.21,.42-1.71c.28-.49,.66-.87,1.15-1.14,.48-.26,1.02-.4,1.62-.4s1.14,.13,1.62,.4c.48,.26,.87,.64,1.15,1.13,.28,.49,.42,1.06,.42,1.71s-.14,1.23-.43,1.72c-.29,.5-.68,.88-1.17,1.15-.49,.27-1.04,.4-1.63,.4s-1.13-.13-1.61-.4"/><path class="cls-2" d="M61.86,59.6c.48,.46,.71,1.13,.71,2.01v3.72h-1.04v-3.57c0-.63-.16-1.11-.47-1.44-.32-.33-.74-.5-1.29-.5s-.99,.17-1.32,.52c-.33,.35-.49,.85-.49,1.51v3.49h-1.05v-6.31h1.05v.9c.21-.32,.49-.57,.85-.75,.36-.18,.75-.26,1.18-.26,.77,0,1.39,.23,1.86,.7"/><polygon class="cls-2" points="35.47 76.2 34.42 76.2 30.21 69.81 30.21 76.2 29.16 76.2 29.16 68.17 30.21 68.17 34.42 74.54 34.42 68.17 35.47 68.17 35.47 76.2"/><path class="cls-2" d="M41.55,71.56c-.18-.29-.42-.51-.72-.66-.3-.15-.64-.22-1.01-.22-.53,0-.98,.17-1.35,.51-.37,.34-.59,.81-.64,1.4h3.98c0-.4-.09-.74-.26-1.03m1.31,1.88h-5.04c.04,.62,.25,1.11,.64,1.46,.39,.35,.86,.52,1.41,.52,.45,0,.83-.11,1.13-.32,.3-.21,.52-.49,.64-.85h1.13c-.17,.61-.51,1.1-1.01,1.48-.51,.38-1.14,.57-1.89,.57-.6,0-1.13-.13-1.61-.4-.47-.27-.84-.65-1.11-1.15-.27-.5-.4-1.07-.4-1.72s.13-1.22,.39-1.72c.26-.49,.63-.87,1.1-1.13,.47-.26,1.02-.4,1.63-.4s1.13,.13,1.59,.39c.46,.26,.82,.62,1.06,1.08,.25,.46,.37,.97,.37,1.55,0,.2-.01,.41-.03,.63"/><path class="cls-2" d="M45.24,70.76v3.72c0,.31,.07,.52,.2,.65s.36,.19,.68,.19h.77v.89h-.94c-.58,0-1.02-.13-1.31-.4-.29-.27-.44-.71-.44-1.32v-3.72h-.82v-.86h.82v-1.59h1.05v1.59h1.65v.86h-1.65Z"/><polygon class="cls-2" points="56.68 69.89 54.71 76.2 53.63 76.2 52.11 71.2 50.59 76.2 49.51 76.2 47.53 69.89 48.6 69.89 50.05 75.19 51.61 69.89 52.68 69.89 54.21 75.2 55.64 69.89 56.68 69.89"/><path class="cls-2" d="M61.22,75.12c.33-.18,.6-.44,.8-.79,.2-.35,.31-.78,.31-1.29s-.1-.94-.3-1.29c-.2-.35-.46-.62-.78-.79-.32-.17-.67-.26-1.05-.26s-.73,.09-1.05,.26c-.32,.17-.57,.44-.77,.79-.19,.35-.29,.78-.29,1.29s.09,.95,.28,1.3,.44,.62,.75,.79c.31,.17,.66,.26,1.04,.26s.73-.09,1.06-.26m-2.66,.78c-.48-.27-.86-.65-1.13-1.15-.27-.49-.41-1.07-.41-1.72s.14-1.21,.42-1.71c.28-.49,.66-.87,1.15-1.14,.48-.26,1.02-.4,1.62-.4s1.14,.13,1.62,.4c.48,.26,.87,.64,1.15,1.13,.28,.49,.42,1.06,.42,1.71s-.14,1.23-.43,1.72c-.29,.5-.68,.88-1.17,1.15-.49,.27-1.04,.4-1.63,.4s-1.13-.13-1.61-.4"/><path class="cls-2" d="M66.44,70.08c.34-.2,.76-.3,1.25-.3v1.08h-.28c-1.17,0-1.76,.64-1.76,1.91v3.43h-1.05v-6.31h1.05v1.02c.18-.36,.45-.64,.79-.84"/><polygon class="cls-2" points="72.17 76.2 69.7 73.42 69.7 76.2 68.65 76.2 68.65 67.68 69.7 67.68 69.7 72.69 72.13 69.89 73.59 69.89 70.62 73.04 73.6 76.2 72.17 76.2"/><path class="cls-2" d="M73.89,69.42c-.09-.04-.17-.1-.22-.17-.05-.08-.08-.17-.08-.27h.36c0,.07,.03,.12,.07,.16,.04,.04,.11,.06,.18,.06s.14-.02,.19-.06c.04-.04,.07-.09,.07-.15,0-.05-.02-.09-.05-.12-.03-.03-.07-.06-.11-.08-.05-.02-.11-.04-.19-.06-.11-.03-.2-.06-.27-.1-.07-.03-.13-.08-.18-.14-.05-.06-.07-.15-.07-.26,0-.1,.03-.19,.08-.26,.05-.07,.12-.13,.21-.17,.09-.04,.19-.06,.31-.06,.17,0,.32,.04,.42,.13,.11,.08,.17,.2,.18,.35h-.37c0-.06-.03-.11-.07-.14-.05-.04-.11-.06-.18-.06-.07,0-.12,.02-.16,.05-.04,.03-.06,.08-.06,.15,0,.04,.02,.08,.04,.11,.03,.03,.07,.05,.11,.07,.04,.02,.11,.04,.19,.06,.11,.03,.2,.06,.27,.1,.07,.03,.13,.08,.18,.15,.05,.06,.08,.15,.08,.25,0,.09-.02,.17-.07,.25-.05,.08-.12,.14-.21,.18-.09,.05-.2,.07-.32,.07s-.22-.02-.32-.06"/><polygon class="cls-2" points="76.91 67.78 76.91 69.47 76.57 69.47 76.57 68.37 76.12 69.47 75.86 69.47 75.41 68.37 75.41 69.47 75.07 69.47 75.07 67.78 75.45 67.78 75.99 69.03 76.52 67.78 76.91 67.78"/></g></g></svg>